REM DIRINDEX 1\2,1\3,1\4,1\5,1\6
REM DIRNAME cjc091,folder01,folder02,folder03,folder04,folder05
TITLE ""
FILE "CD2-06.mp3" MP3
  TRACK 01 AUDIO
    TITLE "6:cjc091_1661"
    INDEX 01 00:00:00
  TRACK 02 AUDIO
    TITLE "0:"
    INDEX 01 00:02:10
  TRACK 03 AUDIO
    TITLE "2:cjc091_1662"
    INDEX 01 00:03:31
  TRACK 04 AUDIO
    TITLE "0:"
    INDEX 01 00:05:30
  TRACK 05 AUDIO
    TITLE "3:cjc091_1663"
    INDEX 01 00:05:48
  TRACK 06 AUDIO
    TITLE "0:"
    INDEX 01 00:07:62
  TRACK 07 AUDIO
    TITLE "4:cjc091_1664"
    INDEX 01 00:08:05
  TRACK 08 AUDIO
    TITLE "4:cjc091_1665"
    INDEX 01 00:10:61
  TRACK 09 AUDIO
    TITLE "4:cjc091_1666"
    INDEX 01 00:13:43
  TRACK 10 AUDIO
    TITLE "4:cjc091_1667"
    INDEX 01 00:15:34
  TRACK 11 AUDIO
    TITLE "0:"
    INDEX 01 00:17:37
  TRACK 12 AUDIO
    TITLE "2:cjc091_1668"
    INDEX 01 00:18:48
  TRACK 13 AUDIO
    TITLE "0:"
    INDEX 01 00:20:55
  TRACK 14 AUDIO
    TITLE "3:cjc091_1669"
    INDEX 01 00:20:71
  TRACK 15 AUDIO
    TITLE "0:"
    INDEX 01 00:23:51
  TRACK 16 AUDIO
    TITLE "4:cjc091_1670"
    INDEX 01 00:23:61
  TRACK 17 AUDIO
    TITLE "4:cjc091_1671"
    INDEX 01 00:26:36
  TRACK 18 AUDIO
    TITLE "0:"
    INDEX 01 00:29:13
  TRACK 19 AUDIO
    TITLE "2:cjc091_1672"
    INDEX 01 00:30:20
  TRACK 20 AUDIO
    TITLE "0:"
    INDEX 01 00:31:63
  TRACK 21 AUDIO
    TITLE "3:cjc091_1673"
    INDEX 01 00:32:15
  TRACK 22 AUDIO
    TITLE "0:"
    INDEX 01 00:34:61
  TRACK 23 AUDIO
    TITLE "4:cjc091_1674"
    INDEX 01 00:35:08
  TRACK 24 AUDIO
    TITLE "4:cjc091_1675"
    INDEX 01 00:36:31
  TRACK 25 AUDIO
    TITLE "4:cjc091_1676"
    INDEX 01 00:38:31
  TRACK 26 AUDIO
    TITLE "4:cjc091_1677"
    INDEX 01 00:41:57
  TRACK 27 AUDIO
    TITLE "4:cjc091_1678"
    INDEX 01 00:43:03
  TRACK 28 AUDIO
    TITLE "0:"
    INDEX 01 00:46:06
  TRACK 29 AUDIO
    TITLE "2:cjc091_1679"
    INDEX 01 00:47:13
  TRACK 30 AUDIO
    TITLE "0:"
    INDEX 01 00:48:48
  TRACK 31 AUDIO
    TITLE "3:cjc091_1680"
    INDEX 01 00:48:61
  TRACK 32 AUDIO
    TITLE "0:"
    INDEX 01 00:51:15
  TRACK 33 AUDIO
    TITLE "4:cjc091_1681"
    INDEX 01 00:51:30
  TRACK 34 AUDIO
    TITLE "4:cjc091_1682"
    INDEX 01 00:56:02
  TRACK 35 AUDIO
    TITLE "4:cjc091_1683"
    INDEX 01 00:57:21
  TRACK 36 AUDIO
    TITLE "0:"
    INDEX 01 01:00:13
  TRACK 37 AUDIO
    TITLE "2:cjc091_1684"
    INDEX 01 01:01:21
  TRACK 38 AUDIO
    TITLE "0:"
    INDEX 01 01:02:69
  TRACK 39 AUDIO
    TITLE "3:cjc091_1685"
    INDEX 01 01:03:08
  TRACK 40 AUDIO
    TITLE "0:"
    INDEX 01 01:05:07
  TRACK 41 AUDIO
    TITLE "4:cjc091_1686"
    INDEX 01 01:05:26
  TRACK 42 AUDIO
    TITLE "4:cjc091_1687"
    INDEX 01 01:07:61
  TRACK 43 AUDIO
    TITLE "4:cjc091_1688"
    INDEX 01 01:09:12
  TRACK 44 AUDIO
    TITLE "0:"
    INDEX 01 01:12:52
  TRACK 45 AUDIO
    TITLE "2:cjc091_1689"
    INDEX 01 01:13:61
  TRACK 46 AUDIO
    TITLE "0:"
    INDEX 01 01:16:24
  TRACK 47 AUDIO
    TITLE "3:cjc091_1690"
    INDEX 01 01:16:26
  TRACK 48 AUDIO
    TITLE "0:"
    INDEX 01 01:18:11
  TRACK 49 AUDIO
    TITLE "4:cjc091_1691"
    INDEX 01 01:18:21
  TRACK 50 AUDIO
    TITLE "4:cjc091_1692"
    INDEX 01 01:22:13
  TRACK 51 AUDIO
    TITLE "0:"
    INDEX 01 01:25:57
  TRACK 52 AUDIO
    TITLE "2:cjc091_1693"
    INDEX 01 01:26:62
  TRACK 53 AUDIO
    TITLE "0:"
    INDEX 01 01:28:31
  TRACK 54 AUDIO
    TITLE "3:cjc091_1694"
    INDEX 01 01:28:35
  TRACK 55 AUDIO
    TITLE "0:"
    INDEX 01 01:29:60
  TRACK 56 AUDIO
    TITLE "4:cjc091_1695"
    INDEX 01 01:30:03
  TRACK 57 AUDIO
    TITLE "4:cjc091_1696"
    INDEX 01 01:33:58
  TRACK 58 AUDIO
    TITLE "0:"
    INDEX 01 01:38:49
  TRACK 59 AUDIO
    TITLE "2:cjc091_1697"
    INDEX 01 01:39:55
  TRACK 60 AUDIO
    TITLE "0:"
    INDEX 01 01:41:34
  TRACK 61 AUDIO
    TITLE "3:cjc091_1698"
    INDEX 01 01:41:52
  TRACK 62 AUDIO
    TITLE "0:"
    INDEX 01 01:43:37
  TRACK 63 AUDIO
    TITLE "4:cjc091_1699"
    INDEX 01 01:43:56
  TRACK 64 AUDIO
    TITLE "4:cjc091_1700"
    INDEX 01 01:47:17
  TRACK 65 AUDIO
    TITLE "4:cjc091_1701"
    INDEX 01 01:48:28
  TRACK 66 AUDIO
    TITLE "0:"
    INDEX 01 01:50:21
  TRACK 67 AUDIO
    TITLE "2:cjc091_1702"
    INDEX 01 01:51:30
  TRACK 68 AUDIO
    TITLE "0:"
    INDEX 01 01:53:37
  TRACK 69 AUDIO
    TITLE "3:cjc091_1703"
    INDEX 01 01:53:53
  TRACK 70 AUDIO
    TITLE "0:"
    INDEX 01 01:54:72
  TRACK 71 AUDIO
    TITLE "4:cjc091_1704"
    INDEX 01 01:55:13
  TRACK 72 AUDIO
    TITLE "4:cjc091_1705"
    INDEX 01 01:58:03
  TRACK 73 AUDIO
    TITLE "4:cjc091_1706"
    INDEX 01 02:00:59
  TRACK 74 AUDIO
    TITLE "4:cjc091_1707"
    INDEX 01 02:03:43
  TRACK 75 AUDIO
    TITLE "4:cjc091_1708"
    INDEX 01 02:06:61
  TRACK 76 AUDIO
    TITLE "0:"
    INDEX 01 02:09:54
  TRACK 77 AUDIO
    TITLE "2:cjc091_1709"
    INDEX 01 02:10:59
  TRACK 78 AUDIO
    TITLE "0:"
    INDEX 01 02:12:44
  TRACK 79 AUDIO
    TITLE "3:cjc091_1710"
    INDEX 01 02:12:58
  TRACK 80 AUDIO
    TITLE "0:"
    INDEX 01 02:15:09
  TRACK 81 AUDIO
    TITLE "4:cjc091_1711"
    INDEX 01 02:15:23
  TRACK 82 AUDIO
    TITLE "4:cjc091_1712"
    INDEX 01 02:17:20
  TRACK 83 AUDIO
    TITLE "4:cjc091_1713"
    INDEX 01 02:20:58
  TRACK 84 AUDIO
    TITLE "4:cjc091_1714"
    INDEX 01 02:21:69
  TRACK 85 AUDIO
    TITLE "0:"
    INDEX 01 02:23:38
